<svg width="61" height="60" viewBox="0 0 61 60" fill="none" xmlns="http://www.w3.org/2000/svg">
<path d="M55.0451 5.95494C51.1824 2.12446 46.0966 0 40.6566 0C35.2167 0 30.1309 2.12446 26.2682 5.95494C23.2747 8.9485 21.3111 12.7468 20.603 16.8348C20.5386 17.2532 20.4742 17.6717 20.442 18.0901C20.4099 18.5086 20.3777 18.927 20.3455 19.3455C20.3133 19.6674 20.3133 20.0215 20.3133 20.3434V23.1116V24.367V25.6223V40.7189H35.4099H36.6652H37.9206C37.9528 40.3648 37.9528 40.0429 37.9528 39.6888V36.9528H36.6974H24.0794V25.5901V23.1116V20.3755C24.0794 20.0215 24.0794 19.6996 24.1116 19.3455C24.1438 18.927 24.176 18.5086 24.2403 18.0901C24.3047 17.6717 24.3691 17.2532 24.4657 16.8348C25.1416 13.6803 26.7511 10.8476 28.9399 8.62661C31.9335 5.63305 36.0858 3.76609 40.6566 3.76609C49.7983 3.76609 57.2339 11.2017 57.2339 20.3434C57.2339 24.9142 55.3669 29.0665 52.3734 32.0601C50.1524 34.2811 47.3197 35.8584 44.1652 36.5343V36.8884V39.6567C44.1652 39.9142 44.1652 40.1395 44.1652 40.397C48.2532 39.6888 52.0515 37.7253 55.0451 34.7318C58.8755 30.9013 61 25.7833 61 20.3434C61 14.9034 58.8755 9.78541 55.0451 5.95494Z" fill="#F7654A"/>
<path d="M23.0794 23.0794H24.3348H25.5901H36.9528V34.442V35.6974V36.9528V39.6888C36.9528 40.0429 36.9528 40.3648 36.9206 40.7189C36.8884 41.1373 36.8562 41.5558 36.7919 41.9742C36.7275 42.3927 36.6631 42.8111 36.5665 43.2296C35.8906 46.3841 34.2811 49.2167 32.0923 51.4378C29.0987 54.4313 24.9464 56.2983 20.3755 56.2983C11.2339 56.2983 3.79828 48.8627 3.79828 39.721C3.79828 35.1502 5.66524 30.9978 8.6588 28.0043C10.8798 25.7833 13.7124 24.206 16.867 23.53V20.4077C16.867 20.1502 16.867 19.9249 16.867 19.6674C12.779 20.3755 8.98069 22.339 5.98713 25.3326C2.12446 29.0987 0 34.2167 0 39.6566C0 45.0966 2.12446 50.1824 5.95494 54.0451C9.78541 57.8755 14.9034 60 20.3434 60C25.7833 60 30.8691 57.8755 34.7318 54.0451C38.3369 50.4399 40.4292 45.7081 40.6545 40.6545C40.6545 40.4936 40.6545 40.3326 40.6867 40.1717C40.6867 40.0751 40.6867 40.0107 40.6867 39.9142C40.6867 39.8176 40.6867 39.7532 40.6867 39.6566V36.8884V19.3133H25.5901H24.3348H23.0794C23.0472 19.6674 23.0472 19.9893 23.0472 20.3433L23.0794 23.0794Z" fill="#F7654A"/>
</svg>
